<?xml version="1.0" standalone="no"?>
<!DOCTYPE svg PUBLIC "-//W3C//DTD SVG 20010904//EN"
 "http://www.w3.org/TR/2001/REC-SVG-20010904/DTD/svg10.dtd">
<svg version="1.0" xmlns="http://www.w3.org/2000/svg"
 width="200.000000pt" height="200.000000pt" viewBox="0 0 200.000000 200.000000"
 preserveAspectRatio="xMidYMid meet">
<metadata>
Created by potrace 1.14, written by Peter Selinger 2001-2017
</metadata>
<g transform="translate(0.000000,200.000000) scale(0.100000,-0.100000)"
fill="#000000" stroke="none">
<path d="M547 1660 c-9 -71 -73 -133 -152 -150 l-30 -6 1 -74 c9 -576 187
-944 554 -1144 l66 -36 49 27 c368 193 542 515 572 1053 10 191 14 173 -32
182 -72 14 -143 90 -148 156 l-2 27 -436 3 -436 2 -6 -40z m818 -83 c21 -44
76 -102 117 -123 41 -21 47 -30 43 -63 -2 -14 -6 -66 -9 -116 -13 -198 -60
-393 -128 -529 -70 -139 -187 -267 -325 -353 l-73 -45 -47 28 c-218 126 -365
327 -432 589 -29 114 -41 198 -56 397 l-5 67 39 21 c48 24 95 72 122 123 l19
37 360 0 359 0 16 -33z"/>
<path d="M667 1562 c-9 -2 -17 -10 -17 -18 0 -14 -78 -96 -134 -141 -15 -13
-25 -26 -23 -30 3 -5 8 -51 11 -103 4 -52 9 -104 11 -115 3 -11 7 -36 9 -55
17 -120 61 -255 123 -373 46 -88 188 -236 280 -291 l63 -37 67 44 c129 83 233
196 296 322 29 58 82 222 91 280 6 40 12 73 21 130 3 17 8 73 11 127 l6 96
-28 16 c-44 24 -79 57 -109 104 -15 23 -33 42 -39 43 -35 3 -625 3 -639 1z
m50 -46 c-4 8 15 11 63 11 39 -1 70 -3 71 -6 1 -4 2 -21 4 -39 2 -27 0 -30
-11 -21 -10 8 -14 8 -14 0 0 -6 5 -11 11 -11 8 0 7 -5 -1 -15 -7 -9 -11 -17
-9 -18 2 -1 17 -9 32 -17 16 -8 24 -16 18 -18 -6 -2 -11 -10 -11 -18 0 -9 -5
-12 -11 -9 -6 4 -8 13 -5 21 8 22 -14 28 -32 9 -10 -10 -12 -15 -5 -11 6 3 14
2 18 -4 3 -5 0 -10 -7 -10 -10 0 -9 -3 2 -9 8 -6 18 -7 23 -4 5 3 7 0 5 -8 -3
-8 -10 -13 -15 -12 -5 1 -10 -4 -10 -12 0 -8 4 -12 8 -9 4 2 7 -5 6 -16 -1
-11 -6 -20 -11 -20 -5 0 -6 -3 -3 -6 4 -4 13 -2 21 5 11 9 14 7 14 -14 0 -22
-3 -24 -17 -13 -14 11 -14 11 -4 -3 7 -9 10 -19 6 -22 -3 -4 -1 -7 7 -7 8 0 9
-4 3 -12 -5 -7 -6 -24 -2 -38 7 -24 7 -24 8 -2 2 35 16 25 18 -13 2 -32 -5
-40 -30 -36 -5 1 -6 -3 -2 -8 8 -14 33 -3 46 20 5 11 19 18 32 16 12 -1 21 3
20 10 -1 6 3 13 11 16 8 3 13 -4 13 -22 0 -21 -5 -27 -21 -26 -12 0 -27 4 -33
8 -8 5 -13 4 -13 -2 0 -6 5 -11 12 -11 6 0 8 -3 4 -7 -4 -5 -13 -8 -18 -8 -6
0 -13 -5 -15 -11 -5 -16 27 -27 42 -14 9 8 13 4 13 -16 0 -18 -4 -22 -11 -15
-14 14 -27 14 -27 1 0 -6 5 -9 11 -8 6 2 14 -3 17 -11 3 -8 0 -11 -7 -7 -7 5
-9 1 -4 -9 4 -12 8 -13 13 -5 9 15 18 1 15 -22 -2 -10 0 -17 3 -17 21 3 23 -3
6 -23 -12 -15 -13 -18 -3 -10 18 14 45 8 52 -12 6 -16 63 -14 59 2 -3 18 15
15 22 -3 4 -13 10 -14 26 -5 15 8 20 8 20 -2 0 -10 3 -9 9 1 5 8 7 19 5 25 -3
7 5 12 16 13 14 1 18 -2 13 -10 -13 -21 -11 -36 4 -30 12 5 12 7 1 14 -14 9
-11 11 25 12 14 0 21 -4 19 -14 -2 -8 0 -11 4 -7 4 4 13 3 20 -3 9 -8 12 -5
10 13 -2 13 1 33 5 43 6 19 8 18 18 -5 11 -24 11 -24 7 -2 -3 15 0 22 7 19 7
-2 12 -13 11 -24 -1 -11 5 -20 13 -20 9 0 10 4 4 10 -5 5 -7 16 -4 23 3 8 0
14 -7 14 -6 0 -8 5 -4 12 5 7 11 5 21 -7 8 -12 13 -14 13 -6 0 11 3 11 15 1
13 -11 14 -10 9 3 -3 8 -12 18 -20 21 -8 3 -14 11 -14 17 0 8 5 7 17 -2 14
-12 16 -12 8 0 -6 11 -4 13 7 9 8 -4 15 -1 15 7 0 8 -7 11 -15 7 -10 -4 -13
-1 -8 7 5 7 14 10 22 7 10 -4 11 0 4 20 -12 32 -12 37 -1 29 5 -3 13 0 17 6 4
7 3 9 -4 5 -6 -3 -13 -2 -17 4 -3 5 2 10 12 10 12 0 14 3 6 8 -8 5 -9 13 -3
22 15 23 12 32 -8 26 -13 -4 -19 -1 -19 9 0 10 6 13 18 10 9 -3 20 -1 24 4 4
7 -1 8 -12 4 -17 -6 -17 -5 1 15 17 19 17 22 2 28 -9 3 -13 10 -10 15 3 5 11
6 17 3 8 -4 7 -2 -1 7 -11 12 -14 12 -22 -1 -5 -8 -5 -21 0 -31 9 -16 4 -29
-10 -29 -7 0 -10 16 -10 48 1 53 1 54 14 43 8 -6 21 -8 31 -5 13 5 14 9 3 15
-10 7 -10 9 1 9 11 0 10 4 -4 13 -11 9 -15 19 -11 28 4 8 1 6 -7 -3 -17 -21
-28 -23 -25 -6 2 7 -4 13 -12 13 -8 0 -20 6 -26 14 -6 8 -16 11 -21 8 -12 -8
-12 41 0 60 6 9 3 11 -9 6 -12 -4 -15 -3 -10 5 11 19 26 14 38 -13 6 -13 14
-22 19 -20 4 3 16 -5 26 -18 10 -13 27 -28 38 -34 13 -8 20 -23 21 -47 1 -20
-3 -36 -8 -36 -5 0 -4 -10 3 -21 6 -12 7 -19 2 -16 -5 3 -10 -13 -10 -36 0
-40 -9 -122 -13 -122 -1 0 -3 -13 -5 -30 -1 -16 -4 -31 -5 -32 -1 -2 -3 -11
-4 -20 -1 -10 -8 -42 -16 -71 -10 -39 -18 -51 -28 -47 -11 4 -12 2 -5 -7 16
-20 -1 -53 -27 -53 -13 0 -25 -7 -27 -15 -3 -9 -1 -11 4 -5 10 13 33 13 33 0
0 -22 -12 -45 -21 -40 -5 4 -6 -2 -2 -11 5 -14 3 -16 -12 -11 -15 6 -16 5 -5
-8 10 -12 9 -16 -4 -21 -9 -3 -13 -10 -10 -15 14 -23 -127 -171 -227 -238
l-61 -41 -61 42 c-139 94 -238 218 -297 370 -34 86 -69 237 -65 276 1 12 -1
22 -5 22 -4 0 -8 17 -9 38 -2 44 -8 113 -11 127 -1 6 -1 15 0 20 1 6 3 19 4
29 0 11 15 26 32 35 18 9 51 42 74 74 36 49 45 56 58 45 9 -7 13 -8 9 -2z
m162 -24 c-5 -2 -9 -8 -9 -14 0 -6 6 -6 15 2 9 8 15 9 15 2 0 -6 -5 -14 -10
-17 -6 -4 -8 -11 -4 -16 3 -5 0 -18 -8 -27 -12 -16 -11 -16 6 -2 18 14 19 13
13 -3 -4 -11 -3 -16 3 -12 6 3 10 1 10 -4 0 -17 -18 -13 -39 8 -11 11 -23 16
-28 13 -4 -4 0 2 9 13 10 13 15 34 13 58 -3 35 -2 37 10 20 8 -10 9 -19 4 -21z
m39 17 c-4 16 29 24 39 9 4 -7 1 -8 -7 -3 -9 6 -11 4 -5 -5 6 -10 11 -9 22 5
7 11 13 15 13 9 0 -20 -18 -35 -36 -32 -14 2 -18 -2 -17 -17 1 -14 -4 -21 -17
-22 -17 -2 -18 1 -7 18 10 17 9 22 -6 30 -9 6 -15 15 -11 20 3 6 12 3 20 -8 9
-11 13 -13 12 -4z m82 -7 c-5 -2 -6 -11 -3 -20 4 -15 3 -15 -7 -2 -10 13 -11
12 -6 -3 5 -15 2 -17 -17 -12 -19 5 -20 4 -4 -5 21 -13 22 -27 2 -27 -8 0 -15
4 -15 9 0 5 -5 6 -11 2 -8 -4 -7 -9 2 -16 11 -7 9 -8 -4 -4 -10 3 -24 6 -29 6
-15 0 0 15 15 15 7 0 11 12 10 25 -1 14 1 19 3 13 8 -18 41 1 49 28 6 17 9 19
16 8 5 -8 4 -15 -1 -17z m54 16 c-3 -4 0 -8 5 -8 6 0 11 4 11 8 0 5 7 9 15 9
23 0 18 -14 -7 -20 -12 -4 -29 -1 -37 6 -9 6 -13 7 -9 3 4 -5 3 -15 -3 -23 -9
-10 -8 -17 2 -29 11 -14 10 -15 -7 -12 -13 2 -19 -2 -18 -14 1 -9 -5 -19 -12
-22 -18 -7 -17 1 5 48 11 22 17 45 15 51 -3 6 6 11 20 11 14 0 22 -4 20 -8z
m104 -2 c7 -4 12 -2 12 4 0 6 5 8 11 4 8 -4 6 -10 -6 -17 -12 -6 -20 -6 -25 3
-5 9 -9 9 -14 1 -4 -6 -12 -8 -18 -5 -7 4 -8 2 -4 -4 4 -6 13 -9 21 -5 11 4
13 1 9 -11 -5 -12 -10 -13 -25 -5 -21 11 -21 11 -14 31 6 15 32 17 53 4z m65
1 c5 8 40 10 57 3 3 -1 9 -2 13 -1 5 1 6 -3 2 -9 -3 -5 0 -10 7 -10 8 0 7 -5
-4 -16 -12 -12 -14 -23 -8 -40 6 -14 6 -33 0 -46 -5 -13 -9 -21 -10 -18 -7 25
-7 39 1 34 5 -3 9 0 9 6 0 7 -8 9 -21 5 -16 -5 -19 -4 -14 5 5 8 1 18 -10 27
-22 15 -12 17 15 3 16 -9 18 -8 13 6 -3 9 0 20 7 24 8 5 9 9 1 14 -6 4 -11 1
-11 -6 0 -10 -3 -9 -11 2 -8 12 -9 11 -4 -6 4 -17 1 -22 -11 -20 -13 1 -17 -7
-17 -34 0 -29 3 -35 20 -33 12 1 20 -4 20 -13 0 -10 -7 -12 -21 -8 -36 11 -48
25 -35 40 9 11 8 18 0 28 -10 11 -8 17 9 29 13 9 17 17 11 22 -6 3 -11 2 -11
-3 0 -6 -8 -9 -17 -8 -15 1 -17 -7 -16 -47 1 -39 -2 -46 -13 -36 -16 13 -37 2
-30 -17 6 -16 4 -17 -18 -8 -13 5 -14 8 -1 20 8 8 11 22 8 32 -5 14 -3 15 8 5
16 -16 29 -17 29 -3 0 6 -5 9 -11 8 -19 -5 -21 19 -4 34 9 7 24 20 33 29 9 8
20 11 23 6 4 -5 9 -5 12 0z m-113 -39 c20 -15 22 -20 11 -30 -8 -7 -11 -8 -8
-2 3 6 -3 19 -15 28 -18 16 -20 16 -15 2 4 -9 2 -16 -3 -16 -6 0 -10 4 -10 8
0 5 -7 9 -16 9 -14 0 -14 -2 2 -14 10 -7 26 -11 35 -8 14 5 17 0 15 -20 -3
-22 -1 -24 13 -13 14 10 14 10 0 -6 -13 -14 -21 -16 -35 -7 -11 6 -13 11 -6
11 6 0 12 5 12 12 0 6 -3 8 -7 5 -3 -4 -13 -1 -22 6 -14 11 -15 10 -1 -7 13
-17 13 -19 0 -14 -8 2 -15 11 -15 19 0 8 -4 20 -8 27 -20 31 32 38 73 10z m94
-48 c-6 -6 -10 -3 -10 10 0 13 4 16 10 10 7 -7 7 -13 0 -20z m-101 -43 c26
-14 47 -21 47 -16 0 5 5 9 11 9 8 0 8 -5 -1 -15 -10 -12 -16 -13 -26 -4 -9 7
-14 8 -14 1 0 -14 -27 -9 -43 7 -10 11 -7 12 13 6 19 -5 21 -4 10 4 -8 6 -23
8 -34 5 -11 -4 -16 -2 -12 4 3 6 2 13 -3 16 -5 4 -13 1 -17 -5 -4 -8 -9 -8
-13 -1 -4 7 -12 8 -21 2 -13 -8 -12 -10 3 -11 9 -1 23 -2 29 -3 16 -1 23 -36
8 -36 -6 0 -8 6 -4 13 4 6 4 9 -1 5 -4 -4 -14 -3 -22 3 -10 9 -17 8 -29 -2
-14 -11 -15 -10 -12 6 4 24 -31 29 -50 9 -8 -9 -9 -14 -2 -14 6 0 8 -5 5 -10
-5 -8 -12 -7 -23 2 -16 12 -16 11 -2 -6 14 -18 13 -19 -5 -12 -16 6 -18 5 -7
-5 17 -18 15 -34 -2 -20 -10 8 -16 9 -21 1 -4 -6 -3 -10 2 -9 20 3 27 -2 13
-11 -13 -8 -12 -10 3 -10 10 0 15 -4 12 -10 -3 -5 0 -10 7 -10 10 0 9 -3 -2
-11 -12 -8 -11 -9 5 -5 16 5 21 1 21 -14 0 -11 -4 -20 -8 -20 -4 0 -8 5 -8 11
0 5 -4 8 -9 5 -5 -3 -14 1 -21 9 -10 12 -10 15 0 15 10 0 10 3 0 15 -7 8 -15
13 -19 10 -13 -7 -5 28 12 61 9 17 24 34 33 38 10 4 14 12 10 22 -5 12 -2 15
10 10 9 -4 24 -1 32 6 10 8 13 9 9 2 -11 -18 16 -23 44 -8 13 7 18 13 12 14
-7 0 -13 5 -13 12 0 6 10 2 23 -9 12 -11 43 -31 70 -46z m72 13 c3 -5 12 -7
19 -4 8 3 17 1 21 -5 8 -15 -4 -33 -17 -25 -6 4 -5 10 3 16 11 8 10 9 -3 4
-21 -6 -48 2 -48 15 0 12 17 12 25 -1z m-213 -17 c-10 -4 -10 -8 -1 -19 7 -8
7 -14 1 -14 -5 0 -15 6 -21 14 -12 14 -2 24 24 24 6 0 4 -2 -3 -5z m372 -9 c7
-18 0 -34 -16 -34 -7 0 -6 5 1 14 8 10 9 16 1 21 -6 4 -10 3 -9 -2 3 -20 -2
-27 -11 -13 -8 13 -10 12 -10 -2 0 -25 -15 -23 -17 2 -1 11 2 18 6 16 4 -3 13
-1 21 5 21 12 27 11 34 -7z m-74 -9 c14 -17 0 -21 -17 -4 -8 8 -13 7 -18 -2
-5 -7 -4 -10 3 -5 6 3 13 2 16 -3 3 -5 -1 -11 -9 -15 -8 -3 -15 -1 -15 5 0 6
-5 7 -12 3 -9 -6 -9 -9 0 -12 19 -6 14 -18 -8 -18 -14 0 -18 5 -15 17 3 10 1
20 -4 24 -7 4 -8 -1 -5 -12 5 -14 4 -15 -4 -4 -8 11 -11 9 -17 -9 -4 -12 -8
-30 -9 -38 -2 -9 -8 -18 -14 -20 -12 -4 -11 16 2 36 5 8 3 19 -3 25 -9 9 -11
8 -6 -4 3 -9 0 -21 -8 -27 -11 -10 -14 -6 -14 17 0 22 5 28 21 26 12 0 29 5
38 13 14 11 21 12 31 3 11 -9 17 -8 27 4 16 19 24 19 40 0z m-237 -12 c18 -17
19 -17 32 0 11 15 14 16 25 2 7 -9 14 -31 16 -51 l2 -35 -19 26 c-11 13 -17
29 -14 35 3 5 2 10 -4 10 -5 0 -12 -10 -14 -22 l-4 -23 -8 23 c-6 17 -13 21
-29 17 -15 -5 -17 -4 -7 3 8 6 9 12 3 16 -5 3 -12 -1 -16 -9 -6 -16 9 -29 23
-20 6 3 8 -7 6 -22 -2 -16 -4 -31 -4 -35 -1 -5 -5 -8 -10 -8 -4 0 -7 11 -6 24
2 19 -4 28 -28 40 -37 17 -50 12 -41 -16 4 -15 3 -18 -6 -13 -9 5 -11 4 -6 -4
4 -6 12 -9 17 -6 5 4 9 1 9 -4 0 -17 -27 -13 -34 4 -6 16 1 42 17 63 7 9 13
10 24 0 11 -9 18 -8 31 5 20 21 21 21 45 0z m345 5 c-2 -7 6 -13 16 -13 11 0
20 -8 22 -18 2 -18 -11 -23 -21 -7 -3 5 -13 6 -21 3 -10 -4 -12 -9 -5 -16 7
-7 6 -17 -1 -31 -14 -25 -13 -26 4 -38 10 -7 10 -9 -2 -7 -25 2 -40 -1 -39 -8
1 -5 1 -14 0 -22 -2 -21 -14 -5 -17 23 -2 16 2 23 13 22 12 -1 16 8 16 34 0
30 -3 35 -22 33 -13 -2 -20 1 -16 7 3 6 -1 7 -10 3 -13 -5 -14 -7 -3 -14 15
-10 14 -10 -29 -14 -36 -2 -41 6 -18 29 10 10 29 13 59 11 38 -4 46 -2 51 15
7 22 27 28 23 8z m-413 -42 c7 3 18 -4 24 -15 14 -25 14 -31 0 -31 -5 0 -7 6
-3 13 5 8 2 7 -9 -2 -12 -10 -14 -17 -7 -26 8 -9 6 -14 -6 -19 -23 -9 -28 -2
-14 23 7 15 8 27 0 40 -5 11 -10 23 -9 28 0 4 3 3 5 -4 3 -7 11 -10 19 -7z
m219 -28 c-11 -17 -14 -57 -5 -62 12 -8 68 24 68 39 0 8 -3 13 -5 10 -3 -3
-12 1 -21 7 -13 10 -14 10 -3 -2 17 -19 15 -26 -7 -26 -13 0 -19 7 -18 18 1
10 5 18 10 18 4 0 5 5 2 10 -3 6 -2 10 3 10 6 0 12 -6 15 -14 6 -16 53 -15 85
3 13 7 26 10 30 7 3 -3 1 -6 -5 -6 -13 0 -12 -32 2 -43 6 -5 0 -5 -12 -2 -20
6 -23 3 -20 -22 6 -54 30 -71 41 -28 7 26 33 26 33 0 0 -10 -4 -12 -12 -5 -9
8 -12 4 -10 -15 4 -29 3 -30 -34 -10 -16 8 -30 13 -32 12 -2 -2 -15 8 -28 22
-13 13 -17 22 -10 18 8 -3 22 -8 32 -12 10 -4 17 -3 17 5 0 6 -4 8 -10 5 -14
-9 -12 19 2 33 9 9 9 12 0 12 -7 0 -12 -6 -12 -12 0 -9 -4 -8 -11 2 -8 12 -9
10 -4 -9 5 -16 4 -21 -4 -17 -21 14 -33 -5 -17 -28 14 -22 13 -23 -13 -23 -17
0 -28 6 -28 14 0 9 6 12 16 8 13 -5 13 -4 4 6 -9 9 -15 9 -26 0 -11 -9 -17 -8
-24 1 -16 21 -23 49 -16 61 8 13 10 18 12 45 2 16 2 16 12 -1 5 -9 7 -23 3
-29z m-121 7 c10 4 20 -1 27 -15 6 -11 15 -18 21 -14 10 6 39 -13 39 -26 0 -3
-7 -7 -15 -7 -10 0 -14 6 -10 16 5 13 4 13 -6 4 -9 -9 -9 -16 -1 -26 7 -8 9
-17 5 -20 -9 -9 -23 -9 -22 1 4 22 -3 42 -20 63 l-20 24 4 -31 c3 -25 0 -31
-13 -30 -9 0 -20 6 -24 11 -5 6 -8 5 -8 -3 0 -7 -4 -10 -10 -7 -5 3 -11 1 -11
-4 -1 -6 -2 -17 -3 -23 -1 -16 -36 -23 -36 -8 0 6 5 8 12 4 6 -4 8 -3 5 2 -3
6 -2 16 3 24 5 9 4 20 -3 29 -10 12 -9 13 2 6 23 -14 68 -13 68 1 0 7 -3 11
-7 9 -3 -2 -7 6 -7 18 -2 14 1 17 6 9 4 -7 15 -10 24 -7z m22 -65 c-3 -6 -1
-10 5 -10 6 0 9 -4 5 -9 -3 -5 -1 -13 5 -16 15 -9 41 15 33 29 -4 6 4 4 17 -5
27 -18 38 -39 20 -39 -6 0 -9 4 -5 9 3 5 0 13 -6 17 -8 5 -9 3 -4 -6 6 -10 4
-12 -9 -7 -9 4 -15 3 -12 -2 5 -7 -5 -8 -49 -2 -6 0 -11 19 -11 42 -1 29 2 36
8 25 5 -9 6 -21 3 -26z m-174 -10 c13 -8 26 -7 42 1 20 11 21 11 7 -5 -13 -16
-12 -20 5 -32 10 -8 16 -14 13 -14 -4 0 -14 -3 -23 -6 -9 -4 -15 -3 -14 2 3
20 -2 35 -10 30 -5 -4 -11 -3 -14 1 -2 5 -3 3 -1 -3 1 -7 -8 -11 -21 -10 -22
1 -23 2 -7 20 9 11 11 16 5 12 -7 -4 -13 -2 -13 3 0 14 6 14 31 1z m113 -12
c-4 -7 -9 -19 -10 -28 -1 -8 -5 -24 -9 -35 -4 -11 -3 -16 2 -10 4 6 19 11 33
13 24 2 24 2 6 -12 -10 -9 -22 -13 -26 -11 -13 8 -19 -22 -7 -34 8 -8 7 -15
-4 -26 -14 -14 -15 -8 -13 57 1 40 2 74 3 76 0 1 1 5 0 8 -1 8 24 24 29 19 2
-2 0 -10 -4 -17z m31 12 c-3 -5 -1 -10 6 -10 7 0 9 -3 6 -6 -3 -4 -2 -15 4
-26 14 -25 6 -32 -19 -19 -15 8 -22 8 -25 -2 -3 -6 -4 -1 -2 13 3 34 15 60 27
60 5 0 6 -4 3 -10z m-124 -47 c-10 -4 -8 -9 8 -18 22 -11 22 -12 -8 -12 -16 0
-29 5 -28 11 2 13 18 26 32 25 6 0 4 -3 -4 -6z m388 -8 c8 -4 28 -9 44 -10 26
-2 28 0 13 10 -15 12 -14 13 7 11 24 -1 24 -2 11 -27 -7 -15 -11 -29 -8 -31 3
-3 -2 -8 -11 -12 -9 -3 -14 -2 -11 2 3 5 -1 9 -8 9 -8 0 -12 -6 -9 -14 3 -9 0
-11 -10 -7 -20 7 -32 -13 -17 -31 9 -11 7 -14 -9 -12 -16 1 -20 6 -15 22 4 16
3 17 -6 5 -9 -13 -11 -12 -8 5 2 11 9 21 16 21 6 1 17 2 23 3 6 0 9 8 6 15 -5
12 1 14 24 11 16 -2 27 0 24 4 -2 5 -20 7 -40 5 -19 -1 -33 1 -30 6 3 5 0 12
-6 16 -8 5 -9 3 -4 -7 7 -11 5 -11 -10 1 -15 12 -17 12 -10 1 6 -11 4 -13 -8
-8 -40 16 -50 17 -27 3 14 -8 19 -15 13 -16 -7 0 -13 -7 -13 -16 0 -8 -5 -12
-11 -9 -6 4 -8 13 -5 21 7 18 -14 30 -24 13 -5 -7 -5 -20 0 -29 6 -11 5 -21
-2 -28 -8 -8 -7 -16 3 -28 12 -16 12 -17 -3 -11 -10 3 -20 1 -24 -5 -4 -6 -3
-8 3 -5 6 4 13 1 16 -6 3 -10 -4 -14 -23 -14 l-29 0 18 26 c25 36 31 56 21 71
-7 11 -12 11 -23 2 -12 -10 -14 -8 -14 13 0 20 2 23 13 14 15 -12 34 -4 34 14
0 7 -4 6 -10 -3 -7 -11 -12 -12 -21 -3 -8 8 -18 9 -31 2 -10 -5 -18 -7 -18 -4
0 3 -6 0 -14 -7 -10 -9 -10 -15 -3 -20 6 -4 8 -10 4 -14 -3 -4 -13 -2 -20 4
-8 7 -16 11 -18 9 -2 -1 4 5 15 14 10 9 16 20 13 26 -7 12 213 11 232 -2z
m-195 -50 c-15 -23 -5 -43 15 -31 5 4 12 0 15 -6 3 -7 3 -3 1 9 -6 23 9 40 20
23 3 -5 2 -10 -4 -10 -6 0 -8 -6 -5 -14 12 -31 -18 -28 -96 10 -3 1 -12 -1
-20 -6 -12 -7 -12 -11 0 -25 12 -14 12 -16 -1 -15 -30 5 -41 0 -35 -15 5 -15
-5 -20 -17 -8 -4 3 3 17 14 29 18 19 20 26 9 39 -10 12 -10 15 1 16 8 1 21 2
29 3 8 1 20 -3 27 -7 16 -11 36 1 29 18 -3 8 0 16 7 18 22 8 27 -4 11 -28z
m189 10 c4 3 5 2 3 -1 -2 -3 -8 -6 -13 -6 -4 0 -17 -7 -28 -14 -39 -28 -49 -8
-13 28 19 19 22 20 33 5 7 -9 15 -15 18 -12z m-56 -42 c6 4 15 -4 21 -17 7
-16 18 -23 34 -21 32 3 32 3 18 20 -7 9 -10 19 -6 22 10 10 27 -19 21 -34 -6
-18 -2 -16 19 9 15 18 16 20 2 15 -9 -4 -16 -2 -16 2 0 14 29 21 36 10 3 -6
-1 -18 -10 -28 -9 -10 -13 -21 -9 -26 5 -4 3 -5 -4 -1 -18 10 -26 -13 -12 -32
11 -14 11 -15 -1 -5 -11 10 -17 10 -28 0 -13 -10 -14 -8 -9 13 4 14 4 19 1 12
-4 -9 -14 -3 -31 20 -17 22 -23 27 -21 14 2 -10 -2 -21 -9 -23 -7 -3 -11 3 -9
14 2 10 -2 24 -9 30 -11 10 -13 8 -11 -13 4 -34 21 -50 39 -36 8 7 17 9 20 5
11 -10 8 -20 -5 -20 -7 0 -23 -3 -36 -7 -12 -4 -22 -4 -21 1 4 22 -2 34 -13
27 -10 -6 -10 -5 -1 7 9 12 10 18 1 27 -8 8 -8 15 0 25 7 8 11 16 9 18 -1 2 5
-4 14 -15 9 -10 21 -16 26 -13z m-287 17 c-13 -8 -13 -10 2 -10 13 0 16 -7 13
-28 -4 -38 8 -56 32 -48 14 4 20 2 20 -9 0 -10 -6 -14 -15 -10 -19 7 -32 -3
-26 -20 4 -8 10 -12 15 -9 5 3 9 -1 9 -9 0 -18 24 -29 45 -21 14 6 19 17 16
36 -1 12 51 1 60 -13 6 -10 9 -10 9 -1 0 6 10 12 22 12 21 0 17 -15 -5 -15 -7
0 -11 -8 -11 -18 1 -9 -1 -15 -5 -13 -4 3 -13 1 -21 -4 -9 -6 -18 -3 -25 7
-12 16 -40 9 -30 -8 4 -5 -4 -8 -17 -6 -21 2 -83 58 -83 75 0 4 -4 13 -9 20
-4 7 -3 19 4 27 10 12 10 15 0 15 -9 0 -10 3 -1 14 15 18 -11 30 -28 13 -7 -7
-14 -7 -19 -1 -4 5 -6 8 -3 7 2 -1 13 4 25 12 11 8 25 15 31 15 5 0 3 -5 -5
-10z m170 0 c0 -5 -5 -10 -11 -10 -5 0 -7 5 -4 10 3 6 8 10 11 10 2 0 4 -4 4
-10z m-54 -23 c7 3 17 -2 20 -11 3 -9 10 -13 15 -10 13 8 30 -6 23 -18 -4 -6
-10 -5 -15 3 -7 11 -9 9 -10 -6 -1 -11 -1 -23 0 -27 1 -10 -3 -10 -33 2 -17 6
-27 6 -32 -2 -4 -7 -3 -8 4 -4 7 4 12 3 12 -2 0 -4 16 -8 37 -8 22 1 38 -4 41
-13 3 -10 0 -11 -9 -5 -19 12 -89 12 -96 0 -3 -5 -1 -6 5 -2 7 4 12 2 12 -4 0
-6 6 -8 13 -4 6 4 4 -1 -5 -11 -17 -18 -18 -18 -42 8 -24 26 -24 26 -3 24 21
-2 23 4 18 44 0 5 -6 7 -13 3 -7 -4 -8 -3 -4 5 6 9 11 9 22 0 10 -8 14 -8 14
0 0 6 5 11 10 11 6 0 9 -6 8 -12 -2 -7 3 -13 11 -13 8 0 15 6 17 13 1 7 0 8
-3 2 -2 -5 -9 -10 -14 -10 -11 0 -7 22 6 33 6 5 2 6 -8 3 -23 -8 -40 2 -30 17
5 8 8 8 10 0 3 -7 11 -9 19 -6z m116 -73 c-13 -9 -10 -11 19 -8 19 2 44 5 57
8 14 3 22 0 22 -8 0 -9 -14 -12 -46 -11 -25 1 -47 -2 -49 -5 -3 -4 10 -7 27
-6 29 1 33 -2 35 -28 2 -27 1 -27 -17 -11 -10 9 -24 14 -29 10 -6 -3 -16 5
-22 19 -7 14 -16 23 -21 20 -4 -3 -19 3 -32 13 l-24 19 48 0 c40 0 45 -2 32
-12z"/>
<path d="M830 1499 c0 -5 5 -7 10 -4 6 3 10 8 10 11 0 2 -4 4 -10 4 -5 0 -10
-5 -10 -11z"/>
<path d="M1322 1435 c3 -21 20 -37 51 -48 15 -6 16 -4 7 14 -6 11 -17 18 -23
16 -7 -2 -18 5 -25 17 -12 20 -12 20 -10 1z"/>
<path d="M626 1362 c-3 -5 1 -9 9 -9 8 0 12 4 9 9 -3 4 -7 8 -9 8 -2 0 -6 -4
-9 -8z"/>
<path d="M600 1346 c0 -3 9 -10 20 -16 11 -6 20 -8 20 -6 0 3 -9 10 -20 16
-11 6 -20 8 -20 6z"/>
<path d="M766 1338 c3 -5 10 -6 15 -3 13 9 11 12 -6 12 -8 0 -12 -4 -9 -9z"/>
<path d="M596 1313 c2 -7 -1 -15 -7 -18 -5 -4 -7 -11 -4 -16 4 -5 0 -9 -7 -10
-7 0 -3 -5 10 -11 26 -13 30 -30 5 -22 -15 5 -15 4 -3 -4 8 -6 18 -8 24 -5 6
4 6 -1 1 -13 -4 -10 -8 -29 -8 -41 1 -14 -3 -20 -10 -16 -6 3 -7 1 -3 -6 4 -6
12 -9 17 -5 6 3 9 -2 7 -12 -2 -11 -10 -22 -18 -26 -11 -6 -10 -7 5 -7 36 2
46 -1 40 -11 -3 -5 -12 -7 -19 -4 -11 4 -13 -4 -11 -33 2 -21 4 -39 6 -40 1
-2 2 -7 3 -13 0 -5 3 -9 6 -8 3 1 15 -4 27 -10 22 -12 43 0 23 13 -6 4 -7 11
-4 17 4 6 -1 6 -14 -1 -13 -7 -23 -7 -27 -2 -3 5 4 12 15 16 21 7 28 25 9 25
-8 0 -8 5 1 15 9 10 9 19 2 28 -10 12 -12 17 -12 38 0 5 -4 7 -10 4 -5 -3 -10
-2 -10 4 0 5 3 11 8 14 4 2 2 3 -4 1 -14 -3 -13 51 0 63 5 4 6 3 2 -4 -3 -6
-3 -14 2 -17 4 -2 9 4 9 15 1 11 -5 19 -13 19 -8 0 -12 5 -9 10 4 6 12 7 18 3
7 -4 6 1 -2 10 -8 10 -21 15 -32 12 -12 -4 -17 -1 -15 9 3 20 16 33 16 16 0
-7 3 -10 7 -7 3 4 13 1 22 -6 14 -10 14 -10 4 4 -7 9 -10 19 -6 23 4 4 -1 4
-11 0 -15 -6 -17 -4 -11 6 5 8 4 11 -3 6 -5 -3 -12 -3 -15 1 -2 5 -2 3 -1 -4z
m49 -201 c-3 -3 -11 0 -18 7 -9 10 -8 11 6 5 10 -3 15 -9 12 -12z m1 -48 c-11
-8 -14 -14 -8 -14 16 0 15 -17 -1 -23 -8 -3 -12 5 -12 24 -1 15 2 26 6 23 4
-2 11 1 14 7 4 5 10 7 13 4 4 -4 -2 -13 -12 -21z m29 -74 c3 -6 -1 -7 -9 -4
-18 7 -21 14 -7 14 6 0 13 -4 16 -10z"/>
<path d="M650 1299 c0 -5 5 -7 10 -4 6 3 10 8 10 11 0 2 -4 4 -10 4 -5 0 -10
-5 -10 -11z"/>
<path d="M756 1253 c-6 -14 -5 -15 5 -6 7 7 10 15 7 18 -3 3 -9 -2 -12 -12z"/>
<path d="M690 1239 c0 -5 5 -7 10 -4 6 3 10 8 10 11 0 2 -4 4 -10 4 -5 0 -10
-5 -10 -11z"/>
<path d="M735 1200 c3 -5 8 -10 11 -10 2 0 4 5 4 10 0 6 -5 10 -11 10 -5 0 -7
-4 -4 -10z"/>
<path d="M786 1158 c3 -5 10 -6 15 -3 13 9 11 12 -6 12 -8 0 -12 -4 -9 -9z"/>
<path d="M810 1126 c0 -2 7 -7 16 -10 8 -3 12 -2 9 4 -6 10 -25 14 -25 6z"/>
<path d="M815 1080 c-3 -5 -1 -10 4 -10 6 0 11 5 11 10 0 6 -2 10 -4 10 -3 0
-8 -4 -11 -10z"/>
<path d="M770 999 c0 -5 5 -7 10 -4 6 3 10 8 10 11 0 2 -4 4 -10 4 -5 0 -10
-5 -10 -11z"/>
<path d="M886 982 c-3 -5 1 -9 9 -9 8 0 12 4 9 9 -3 4 -7 8 -9 8 -2 0 -6 -4
-9 -8z"/>
<path d="M640 966 c0 -2 7 -7 16 -10 8 -3 12 -2 9 4 -6 10 -25 14 -25 6z"/>
<path d="M910 940 c0 -5 5 -10 11 -10 5 0 7 5 4 10 -3 6 -8 10 -11 10 -2 0 -4
-4 -4 -10z"/>
<path d="M667 889 c4 -13 8 -18 11 -10 2 7 -1 18 -6 23 -8 8 -9 4 -5 -13z"/>
<path d="M1273 892 c-8 -14 -8 -19 1 -19 7 0 13 9 13 19 1 10 1 18 0 18 -1 0
-7 -8 -14 -18z"/>
<path d="M1036 878 c3 -5 10 -6 15 -3 13 9 11 12 -6 12 -8 0 -12 -4 -9 -9z"/>
<path d="M1126 878 c3 -5 10 -6 15 -3 13 9 11 12 -6 12 -8 0 -12 -4 -9 -9z"/>
<path d="M1159 873 c-13 -16 -12 -17 4 -4 16 13 21 21 13 21 -2 0 -10 -8 -17
-17z"/>
<path d="M1066 858 c3 -5 10 -6 15 -3 13 9 11 12 -6 12 -8 0 -12 -4 -9 -9z"/>
<path d="M1107 853 c5 -12 3 -14 -7 -8 -9 5 -11 4 -6 -4 6 -9 11 -9 22 0 17
14 17 16 0 22 -11 4 -13 1 -9 -10z"/>
<path d="M697 849 c7 -7 15 -10 18 -7 3 3 -2 9 -12 12 -14 6 -15 5 -6 -5z"/>
<path d="M1178 848 c8 -9 10 -23 6 -30 -4 -7 2 -5 13 5 11 9 23 14 26 10 4 -3
7 -1 7 6 0 8 -6 11 -16 7 -9 -4 -24 -1 -33 6 -14 12 -14 11 -3 -4z"/>
<path d="M1251 846 c-9 -10 -8 -15 2 -19 8 -3 13 3 13 14 0 23 0 23 -15 5z"/>
<path d="M696 818 c3 -5 10 -6 15 -3 13 9 11 12 -6 12 -8 0 -12 -4 -9 -9z"/>
<path d="M1147 799 c7 -7 15 -10 18 -7 3 3 -2 9 -12 12 -14 6 -15 5 -6 -5z"/>
<path d="M1261 794 c0 -11 3 -14 6 -6 3 7 2 16 -1 19 -3 4 -6 -2 -5 -13z"/>
<path d="M1229 783 c-13 -16 -12 -17 4 -4 9 7 17 15 17 17 0 8 -8 3 -21 -13z"/>
<path d="M1196 767 c3 -10 9 -15 12 -12 3 3 0 11 -7 18 -10 9 -11 8 -5 -6z"/>
<path d="M730 741 c0 -6 4 -13 10 -16 6 -3 7 1 4 9 -7 18 -14 21 -14 7z"/>
<path d="M1155 1470 c-3 -5 -1 -10 4 -10 6 0 11 5 11 10 0 6 -2 10 -4 10 -3 0
-8 -4 -11 -10z"/>
<path d="M1075 1320 c3 -5 8 -10 11 -10 2 0 4 5 4 10 0 6 -5 10 -11 10 -5 0
-7 -4 -4 -10z"/>
<path d="M1345 1330 c-3 -6 1 -7 9 -4 18 7 21 14 7 14 -6 0 -13 -4 -16 -10z"/>
<path d="M1245 1320 c-3 -5 -1 -10 4 -10 6 0 11 5 11 10 0 6 -2 10 -4 10 -3 0
-8 -4 -11 -10z"/>
<path d="M1345 1289 c-4 -6 -5 -12 -2 -15 2 -3 7 2 10 11 7 17 1 20 -8 4z"/>
<path d="M1090 949 c0 -9 31 -21 38 -14 3 3 0 5 -7 5 -7 0 -10 4 -7 8 3 5 -1
9 -9 9 -8 0 -15 -4 -15 -8z"/>
<path d="M1155 1000 c3 -5 8 -10 11 -10 2 0 4 5 4 10 0 6 -5 10 -11 10 -5 0
-7 -4 -4 -10z"/>
</g>
</svg>
